<svg id="efi9ajp5i2r1" xmlns="http://www.w3.org/2000/svg" xmlns:xlink="http://www.w3.org/1999/xlink" viewBox="0 0 640 360" shape-rendering="geometricPrecision" text-rendering="geometricPrecision"><style><![CDATA[#efi9ajp5i2r13_to {animation: efi9ajp5i2r13_to__to 3000ms linear infinite normal forwards}@keyframes efi9ajp5i2r13_to__to { 0% {transform: translate(379.819504px,208.762001px)} 16.666667% {transform: translate(315.539995px,193.737999px)} 33.333333% {transform: translate(285.180496px,221.448006px)} 50% {transform: translate(323.680497px,249.654996px)} 66.666667% {transform: translate(379.820000px,208.760000px)} 100% {transform: translate(379.820000px,208.760000px)} }#efi9ajp5i2r16_tr {animation: efi9ajp5i2r16_tr__tr 3000ms linear infinite normal forwards}@keyframes efi9ajp5i2r16_tr__tr { 0% {transform: translate(217px,113.236000px) rotate(0deg)} 66.666667% {transform: translate(217px,113.236000px) rotate(360deg)} 100% {transform: translate(217px,113.236000px) rotate(360deg)} }#efi9ajp5i2r17_tr {animation: efi9ajp5i2r17_tr__tr 3000ms linear infinite normal forwards}@keyframes efi9ajp5i2r17_tr__tr { 0% {transform: translate(347px,108.140499px) rotate(0deg)} 66.666667% {transform: translate(347px,108.140499px) rotate(360deg)} 100% {transform: translate(347px,108.140499px) rotate(360deg)} }#efi9ajp5i2r18_tr {animation: efi9ajp5i2r18_tr__tr 3000ms linear infinite normal forwards}@keyframes efi9ajp5i2r18_tr__tr { 0% {transform: translate(199.500000px,188.593002px) rotate(0deg)} 66.666667% {transform: translate(199.500000px,188.593002px) rotate(360deg)} 100% {transform: translate(199.500000px,188.593002px) rotate(360deg)} }#efi9ajp5i2r19_tr {animation: efi9ajp5i2r19_tr__tr 3000ms linear infinite normal forwards}@keyframes efi9ajp5i2r19_tr__tr { 0% {transform: translate(391.500000px,266.783997px) rotate(0deg)} 66.666667% {transform: translate(391.500000px,266.783997px) rotate(360deg)} 100% {transform: translate(391.500000px,266.783997px) rotate(360deg)} }#efi9ajp5i2r20_tr {animation: efi9ajp5i2r20_tr__tr 3000ms linear infinite normal forwards}@keyframes efi9ajp5i2r20_tr__tr { 0% {transform: translate(202px,251.235992px) rotate(0deg)} 66.666667% {transform: translate(202px,251.235992px) rotate(360deg)} 100% {transform: translate(202px,251.235992px) rotate(360deg)} }#efi9ajp5i2r21_tr {animation: efi9ajp5i2r21_tr__tr 3000ms linear infinite normal forwards}@keyframes efi9ajp5i2r21_tr__tr { 0% {transform: translate(283.500000px,109.236000px) rotate(0deg)} 66.666667% {transform: translate(283.500000px,109.236000px) rotate(360deg)} 100% {transform: translate(283.500000px,109.236000px) rotate(360deg)} }]]></style><g id="efi9ajp5i2r2"><rect id="efi9ajp5i2r3" width="640" height="360" rx="0" ry="0" fill="rgb(255,255,255)" stroke="none" stroke-width="1"/><g id="efi9ajp5i2r4"><path id="efi9ajp5i2r5" d="M364.500000,281.500000L250.500000,281.500000L250.500000,137.500000L342.307000,137.500000L353.358000,150.473000L364.500000,163.552000L364.500000,281.500000Z" fill="rgb(255,255,255)" stroke="rgb(199,199,199)" stroke-width="3"/><path id="efi9ajp5i2r6" d="M364,167L342,139L342,167L364,167Z" fill="rgb(196,196,196)" stroke="rgb(199,199,199)" stroke-width="2"/><line id="efi9ajp5i2r7" x1="265" y1="203" x2="350" y2="203" fill="none" stroke="rgb(199,199,199)" stroke-width="2"/><line id="efi9ajp5i2r8" x1="265" y1="187" x2="350" y2="187" fill="none" stroke="rgb(199,199,199)" stroke-width="2"/><line id="efi9ajp5i2r9" x1="267" y1="218" x2="350" y2="218" fill="none" stroke="rgb(199,199,199)" stroke-width="2"/><line id="efi9ajp5i2r10" x1="267" y1="233" x2="350" y2="233" fill="none" stroke="rgb(199,199,199)" stroke-width="2"/><line id="efi9ajp5i2r11" x1="267" y1="248" x2="350" y2="248" fill="none" stroke="rgb(199,199,199)" stroke-width="2"/><line id="efi9ajp5i2r12" x1="267" y1="263" x2="350" y2="263" fill="none" stroke="rgb(199,199,199)" stroke-width="2"/></g><g id="efi9ajp5i2r13_to" transform="translate(379.819504,208.762001)"><g id="efi9ajp5i2r13" transform="translate(-379.819504,-208.762001)"><circle id="efi9ajp5i2r14" r="16" transform="matrix(1 0 0 1 372.50000000000000 200.50000000000000)" fill="rgb(255,255,255)" stroke="rgb(255,201,14)" stroke-width="3"/><line id="efi9ajp5i2r15" x1="385.139000" y1="212.024000" x2="403.139000" y2="233.024000" fill="none" stroke="rgb(255,201,14)" stroke-width="3"/></g></g><g id="efi9ajp5i2r16_tr" transform="translate(217,113.236000) rotate(0)"><path id="efi9ajp5i2r16" d="M217,106L218.796000,111.528000L224.608000,111.528000L219.906000,114.944000L221.702000,120.472000L217,117.056000L212.298000,120.472000L214.094000,114.944000L209.392000,111.528000L215.204000,111.528000L217,106Z" transform="translate(-217,-113.236000)" fill="rgb(196,196,196)" stroke="none" stroke-width="1"/></g><g id="efi9ajp5i2r17_tr" transform="translate(347,108.140499) rotate(0)"><path id="efi9ajp5i2r17" d="M347,100L349.470000,106.219000L357.462000,106.219000L350.996000,110.062000L353.466000,116.281000L347,112.438000L340.534000,116.281000L343.004000,110.062000L336.538000,106.219000L344.530000,106.219000L347,100Z" transform="translate(-347,-108.140499)" fill="rgb(196,196,196)" stroke="none" stroke-width="1"/></g><g id="efi9ajp5i2r18_tr" transform="translate(199.500000,188.593002) rotate(0)"><path id="efi9ajp5i2r18" d="M199.500000,180L201.633000,186.564000L208.535000,186.564000L202.951000,190.621000L205.084000,197.186000L199.500000,193.129000L193.916000,197.186000L196.049000,190.621000L190.465000,186.564000L197.367000,186.564000L199.500000,180Z" transform="translate(-199.500000,-188.593002)" fill="rgb(196,196,196)" stroke="none" stroke-width="1"/></g><g id="efi9ajp5i2r19_tr" transform="translate(391.500000,266.783997) rotate(0)"><path id="efi9ajp5i2r19" d="M391.500000,260L393.184000,265.182000L398.633000,265.182000L394.225000,268.385000L395.908000,273.568000L391.500000,270.365000L387.092000,273.568000L388.775000,268.385000L384.367000,265.182000L389.816000,265.182000L391.500000,260Z" transform="translate(-391.500000,-266.783997)" fill="rgb(196,196,196)" stroke="none" stroke-width="1"/></g><g id="efi9ajp5i2r20_tr" transform="translate(202,251.235992) rotate(0)"><path id="efi9ajp5i2r20" d="M202,244L203.572000,249.528000L208.657000,249.528000L204.543000,252.944000L206.114000,258.472000L202,255.056000L197.886000,258.472000L199.457000,252.944000L195.343000,249.528000L200.428000,249.528000L202,244Z" transform="translate(-202,-251.235992)" fill="rgb(196,196,196)" stroke="none" stroke-width="1"/></g><g id="efi9ajp5i2r21_tr" transform="translate(283.500000,109.236000) rotate(0)"><path id="efi9ajp5i2r21" d="M283.500000,102L285.633000,107.528000L292.535000,107.528000L286.951000,110.944000L289.084000,116.472000L283.500000,113.056000L277.916000,116.472000L280.049000,110.944000L274.465000,107.528000L281.367000,107.528000L283.500000,102Z" transform="translate(-283.500000,-109.236000)" fill="rgb(196,196,196)" stroke="none" stroke-width="1"/></g></g></svg>