<svg xmlns="http://www.w3.org/2000/svg" width="67.041" height="68.604" viewBox="0 0 67.041 68.604">
  <g id="profit" transform="translate(-0.001 -0.001)">
    <path id="Path_15" data-name="Path 15" d="M64.669,0C16.755,0,19.943-.009,19.26.019A20.121,20.121,0,0,0,11.291,38.2H6.824a4.562,4.562,0,0,0,0,9.125h1.2a4.558,4.558,0,0,0,0,5.063h-1.2a4.562,4.562,0,1,0,0,9.124h.369a4.567,4.567,0,0,0,3.8,7.09H64.669a2.376,2.376,0,0,0,2.373-2.373V2.376A2.376,2.376,0,0,0,64.669,0ZM6.824,45.292a2.528,2.528,0,0,1,0-5.056H34.058a2.528,2.528,0,1,1,0,5.056Zm19.122,7.094H11.822a2.528,2.528,0,0,1,0-5.056H25.946a4.561,4.561,0,0,0,0,5.056Zm26.035,2.038a2.528,2.528,0,0,1,0,5.056H24.747a2.528,2.528,0,1,1,0-5.056ZM6.824,59.48a2.528,2.528,0,0,1,0-5.056H20.95a4.557,4.557,0,0,0,0,5.056Zm18.292,7.09H10.991a2.528,2.528,0,1,1,0-5.056H25.116a4.559,4.559,0,0,0,0,5.056Zm31.03,0H28.913a2.528,2.528,0,0,1,0-5.056H56.146a2.528,2.528,0,0,1,0,5.056Zm8.862-.339a.339.339,0,0,1-.339.339H59.941a4.566,4.566,0,0,0-3.8-7.09h-.369a4.554,4.554,0,0,0,0-5.06h1.2a4.562,4.562,0,1,0,0-9.124h-5.93a1.017,1.017,0,1,0,0,2.034h5.93a2.528,2.528,0,0,1,0,5.056H29.743a2.528,2.528,0,1,1,0-5.056H46.978a1.017,1.017,0,0,0,0-2.034H37.853A4.561,4.561,0,0,0,34.058,38.2H28.924a20.155,20.155,0,0,0,8.157-7.262,1.017,1.017,0,1,0-1.714-1.1,18.075,18.075,0,1,1,1.714-3.44,1.017,1.017,0,0,0,1.908.708A20.146,20.146,0,0,0,28.955,2.037H64.669a.339.339,0,0,1,.339.339Zm0,0" transform="translate(0 0)" fill="#fff"/>
    <path id="Path_16" data-name="Path 16" d="M117.158,82.1a3.656,3.656,0,0,1-2.88-1.239c-.3-.289-.528-.518-.83-.518-.542,0-1.006.661-1.006,1.2,0,.96,1.582,2.367,4.036,2.616v2.109a1.017,1.017,0,0,0,2.034,0V84.083a4.32,4.32,0,0,0,3.686-4.647c0-6-7.137-4.238-7.137-7.657,0-1.7,1.494-2.052,2.747-2.052a4.536,4.536,0,0,1,2.324.581,1.586,1.586,0,0,0,.691.243c.646,0,.984-.782.984-1.2,0-1.022-1.806-1.494-3.3-1.607V65.287a1.017,1.017,0,0,0-2.034,0V67.83s0,0,0,.005a3.97,3.97,0,0,0-3.646,4.118c0,5.411,7.137,3.511,7.137,7.657,0,1.6-1,2.486-2.812,2.486Zm0,0" transform="translate(-97.375 -55.658)" fill="#fff"/>
    <path id="Path_17" data-name="Path 17" d="M43.121,46.6a1.017,1.017,0,1,0,1.657,1.18,12.684,12.684,0,1,1-1.693,3.345,1.017,1.017,0,1,0-1.931-.638A14.7,14.7,0,1,0,43.121,46.6Zm0,0" transform="translate(-34.99 -35.002)" fill="#5050ca"/>
    <path id="Path_18" data-name="Path 18" d="M323.634,57.121H303.36a1.017,1.017,0,0,0,0,2.034h20.274a1.017,1.017,0,1,0,0-2.034Zm0,0" transform="translate(-261.831 -49.467)" fill="#fff"/>
    <path id="Path_19" data-name="Path 19" d="M338.972,113.8h-17.9a1.017,1.017,0,0,0,0,2.034h17.9a1.017,1.017,0,1,0,0-2.034Zm0,0" transform="translate(-277.169 -98.552)" fill="#fff"/>
    <path id="Path_20" data-name="Path 20" d="M318.154,162.119a1.018,1.018,0,0,0-1.448-.559l-6.042,3.3a1.017,1.017,0,0,0,.974,1.786l3.658-2-4.82,11.515-6.342-4.455a1.018,1.018,0,0,0-1.2.02l-5.169,3.9a1.017,1.017,0,0,0,1.225,1.624l4.577-3.456,6.77,4.756a1.017,1.017,0,0,0,1.523-.44l5.3-12.655,1.2,3.452a1.017,1.017,0,1,0,1.921-.668Zm0,0" transform="translate(-257.52 -139.804)" fill="#5050ca"/>
  </g>
</svg>
