<svg xmlns="http://www.w3.org/2000/svg" viewBox="0 0 685.23 426.29"><defs><style>.cls-1{fill:#4949bf;}.cls-2{fill:#fff;}.cls-3{fill:none;stroke:#fff;stroke-miterlimit:10;stroke-width:6px;}</style></defs><title>Asset 14</title><g id="Layer_2" data-name="Layer 2"><g id="Layer_1-2" data-name="Layer 1"><path class="cls-1" d="M29.53,376.29H65.94c8.45,0,15.29-6.49,15.29-14.49v-220c0-8-6.84-14.48-15.29-14.48H29.53c-8.45,0-15.3,6.48-15.3,14.48v220C14.23,369.8,21.08,376.29,29.53,376.29Z"/><path class="cls-1" d="M495.53,376.29h36.41c8.45,0,15.29-5.76,15.29-12.86V321.14c0-7.1-6.84-12.85-15.29-12.85H495.53c-8.45,0-15.3,5.75-15.3,12.85v42.29C480.23,370.53,487.08,376.29,495.53,376.29Z"/><path class="cls-1" d="M264.53,376.29h36.41c8.45,0,15.29-3.24,15.29-7.22V278.51c0-4-6.84-7.22-15.29-7.22H264.53c-8.45,0-15.3,3.23-15.3,7.22v90.56C249.23,373.05,256.08,376.29,264.53,376.29Z"/><path class="cls-1" d="M146.53,376.29h36.41c8.45,0,15.29-7.28,15.29-16.26V220.55c0-9-6.84-16.26-15.29-16.26H146.53c-8.45,0-15.3,7.28-15.3,16.26V360C131.23,369,138.08,376.29,146.53,376.29Z"/><path class="cls-1" d="M378.53,376.29h36.41c8.45,0,15.29-11.52,15.29-25.72V266c0-14.2-6.84-25.71-15.29-25.71H378.53c-8.45,0-15.3,11.51-15.3,25.71v84.57C363.23,364.77,370.08,376.29,378.53,376.29Z"/><path class="cls-1" d="M612.53,376.29h36.41c8.45,0,15.29-1.44,15.29-3.22V345.5c0-1.77-6.84-3.21-15.29-3.21H612.53c-8.45,0-15.3,1.44-15.3,3.21v27.57C597.23,374.85,604.08,376.29,612.53,376.29Z"/><path class="cls-2" d="M673.81,409.29H11.42C5.11,409.29,0,410.56,0,412.12v11.33c0,1.57,5.11,2.84,11.42,2.84H673.81c6.31,0,11.42-1.27,11.42-2.84V412.12C685.23,410.55,680.12,409.29,673.81,409.29Z"/><path class="cls-3" d="M276.93,17.37A54.37,54.37,0,0,1,293.36,46.1,55.17,55.17,0,0,1,293.1,70a54.48,54.48,0,0,1-36,39.29,54.5,54.5,0,0,1-70-64.37,54.39,54.39,0,0,1,12.9-24.29,55.26,55.26,0,0,1,6.58-6.08,54.22,54.22,0,0,1,16.63-8.86,55.16,55.16,0,0,1,23.79-2.26A54.3,54.3,0,0,1,276.93,17.37Z"/><path class="cls-2" d="M284.19,91.61l36.47,33.51c2.34,2.15,3,5.47,1.34,7.33l-.06.07,0,0c-1.71,1.84-5.08,1.43-7.42-.72L278,98.33a22.15,22.15,0,0,0,3.41-3A22.6,22.6,0,0,0,284.19,91.61Z"/><path class="cls-2" d="M265.76,30.17a5.1,5.1,0,0,0,1.51.08c2-.18,3.22-1.51,2.66-3-3.56-9.16-16.84-15.68-29.61-14.54-2,.18-3.22,1.51-2.65,3s2.67,2.49,4.7,2.31c8.71-.78,17.78,3.67,20.2,9.92A4.22,4.22,0,0,0,265.76,30.17Z"/><path class="cls-2" d="M30.33,84.7c4.75,3.79,11,5.59,17.53,5.59A30.32,30.32,0,0,0,70.71,79.82L251.16,207.88a29.72,29.72,0,0,0-1.62,16.72A30.53,30.53,0,0,0,310.08,219a30.14,30.14,0,0,0-1.93-10.35l66.08-55.35a30.21,30.21,0,0,0,45.57-1.41L599.69,284.27a30.91,30.91,0,1,0,4.26-7.51L424.41,144.64a30.37,30.37,0,0,0,2.42-15.11,30.54,30.54,0,0,0-60.94,2.93,30.18,30.18,0,0,0,3.63,14.14l-65.23,54.64a30.29,30.29,0,0,0-48.75-.91L75.5,72.56a29.91,29.91,0,0,0,2.6-17,30.54,30.54,0,0,0-60.78,4.2,30.29,30.29,0,0,0,7.55,19.94c.27.31.55.59.84.87C26.74,81.51,29.28,83.86,30.33,84.7Z"/><ellipse class="cls-2" cx="47.89" cy="59.8" rx="27.73" ry="27.65"/><ellipse class="cls-2" cx="279.38" cy="219.29" rx="27.73" ry="27.65"/><ellipse class="cls-2" cx="396.43" cy="132.06" rx="27.73" ry="27.65"/><ellipse class="cls-2" cx="628.37" cy="295.46" rx="27.73" ry="27.65"/><ellipse class="cls-2" cx="47.89" cy="59.8" rx="27.73" ry="27.65"/><ellipse class="cls-2" cx="279.38" cy="219.29" rx="27.73" ry="27.65"/><ellipse class="cls-2" cx="396.43" cy="132.06" rx="27.73" ry="27.65"/><ellipse class="cls-2" cx="628.37" cy="295.46" rx="27.73" ry="27.65"/></g></g></svg>